<svg fill="none" height="16" viewBox="0 0 77 16" width="77" xmlns="http://www.w3.org/2000/svg" xmlns:xlink="http://www.w3.org/1999/xlink"><clipPath id="a"><path d="m0 0h76.9955v16h-76.9955z"/></clipPath><g clip-path="url(#a)"><path d="m19.3138 7.17608-5.1919-5.19188c-.0837-.07872-.1943-.12255-.3093-.12255-.1149 0-.2255.04383-.3092.12255l-1.0203 1.02032 4.1715 4.17156c.0408.0405.0732.08867.0953.14175.0222.05308.0335.11.0335.1675s-.0113.11443-.0335.1675c-.0221.05308-.0545.10126-.0953.14176l-4.2889 4.28891 1.0203 1.0203c.0837.0788.1943.1226.3093.1226.1149 0 .2255-.0438.3092-.1226l5.3093-5.30921c.0787-.08373.1225-.19433.1225-.30926 0-.11492-.0438-.22552-.1225-.30925z" fill="#009c9c"/><path d="m10.4695 2.36118-.3769-.37698c-.0838-.07872-.19437-.12255-.30929-.12255-.11493 0-.22553.04383-.30926.12255l-1.02031 1.02032.6772.6772 1.32956 1.32957 1.3273-1.32957z" fill="#40e3e3"/><path d="m10.3431 10.0745-1.32731 1.3296-.6772.6772 1.02032 1.0203c.08373.0787.19433.1225.30925.1225.11493 0 .22553-.0438.30926-.1225l.37468-.377 1.3296-1.3296z" fill="#40e3e3"/><path d="m12.6253 7.17606c.0787.08373.1225.19433.1225.30926s-.0438.22552-.1225.30925l-2.2822 2.27993 1.3296 1.3296 3.6117-3.61178c.0408-.0405.0732-.08868.0953-.14176.0221-.05307.0335-.11.0335-.1675 0-.05749-.0114-.11442-.0335-.1675s-.0545-.10126-.0953-.14175l-3.4853-3.48308-1.3296 1.32958z" fill="#1abab8"/><path d="m4.15802 7.30023 3.61174-3.61174-1.32957-1.32957-.37923-.37472c-.08373-.07872-.19433-.12255-.30926-.12255-.11492 0-.22552.04383-.30925.12255l-5.313771 5.31603c-.040814.0405-.0732077.08868-.0953138.14175-.0221061.05308-.03348727.11001-.03348727.1675 0 .0575.01138117.11443.03348727.16751s.0544998.10125.0953138.14175l5.191871 5.19186c.08373.0787.19433.1226.30926.1226.11492 0 .22552-.0439.30925-.1226l.38149-.377 1.32957-1.3295-3.4921-3.48536c-.04081-.0405-.0732-.08867-.09531-.14175s-.03349-.11001-.03349-.16751c0-.05749.01138-.11442.03349-.1675.02211-.05307.0545-.10125.09531-.14175z" fill="#87f0f0"/><path d="m8.18736 7.30022 1.59593-1.59368-1.32957-1.32957-.6772-.6772-3.61174 3.61174c-.04081.0405-.07321.08867-.09531.14175-.02211.05308-.03349.11-.03349.1675s.01138.11443.03349.1675c.0221.05308.0545.10126.09531.14176l3.47856 3.47408.6772-.6772 1.32957-1.32961-1.47178-1.46953c-.07873-.08373-.12256-.19433-.12256-.30926 0-.11492.04383-.22552.12256-.30925" fill="#40e3e3"/><path d="m8.18737 7.91873 1.47179 1.46953 1.59364-1.59368c.0408-.0405.0732-.08868.0953-.14175.0222-.05308.0335-.11001.0335-.16751 0-.05749-.0113-.11442-.0335-.1675-.0221-.05308-.0545-.10125-.0953-.14175l-1.46949-1.46953-1.59594 1.59368c-.07872.08373-.12255.19433-.12255.30926 0 .11492.04383.22553.12255.30925z" fill="#17cfcf"/><g fill="#424a52"><path d="m23.4763 6.07448c.0147-.58756.1316-1.16808.3454-1.71557.2001-.50457.5083-.95917.9029-1.33183.4222-.3851.9194-.67868 1.4605-.86231.6553-.21508 1.3421-.3181 2.0316-.30474.7679-.02482 1.5335.09463 2.2574.35215.5189.19162.9975.47873 1.4108.8465.3164.28177.5676.62921.7359 1.01806.1218.28352.2024.58302.2393.88939.0065.0565-.0008.11373-.0213.1668-.0204.05307-.0534.1004-.0961.13794-.084.07631-.1936.11822-.307.11738h-1.2686c-.0991.00463-.1966-.02574-.2754-.08578-.0611-.04921-.1111-.11074-.1468-.18058-.0225-.04064-.0767-.13319-.1648-.2754-.1163-.16841-.2597-.31638-.4243-.43792-.2315-.17197-.4871-.30889-.7585-.40632-.3777-.13145-.7763-.19265-1.1761-.18059-.6844-.03403-1.3564.19263-1.8803.63431-.2361.21588-.4249.47842-.5542.77101-.1294.29259-.1967.60885-.1975.92877-.0226.39729-.0316.82392-.0316 1.27765 0 .45372 0 .88036.0316 1.27765.0293.86682.2821 1.49665.7517 1.88715.5354.4129 1.2006.621 1.8758.5869.3591.0028.7171-.0396 1.0655-.1264.3048-.0746.5902-.2131.8374-.4063.2425-.1984.4311-.4546.5486-.74496.1395-.35951.2063-.74316.1964-1.12867v-.13318h-1.912c-.0557.00088-.111-.00991-.1624-.03168-.0513-.02178-.0975-.05404-.1356-.09473-.0397-.03821-.0713-.08416-.0926-.13501-.0214-.05086-.0321-.10555-.0315-.16071v-1.11286c.0011-.1118.0459-.21873.1248-.298.0788-.07928.1855-.12462.2973-.12638h3.6117c.1118.00176.2185.0471.2974.12638.0788.07927.1236.1862.1248.298v1.72235c.0065.59042-.0945 1.17715-.298 1.73135-.1955.5135-.5041.9764-.9029 1.3544-.427.4033-.9348.7111-1.4899.903-1.3514.4228-2.7998.4228-4.1512 0-.5391-.1785-1.0334-.4711-1.4492-.8578-.39-.3818-.692-.844-.8849-1.3544-.2098-.5539-.3242-1.13931-.3386-1.73141 0-.19864-.0181-.41761-.0226-.65688-.0045-.23928 0-.48759 0-.73815 0-.25057 0-.49436 0-.73589 0-.24154.0136-.45147.0226-.65915"/><path d="m37.8127 6.56208c-.2652-.00747-.5291.0378-.7766.13318-.2.07897-.3831.19543-.5395.34312-.1417.13443-.2566.29452-.3386.47178-.0724.15608-.1219.32184-.1467.4921h3.5395c-.0226-.16753-.062-.33238-.1174-.4921-.0585-.17596-.1548-.33699-.2821-.47178-.1455-.1504-.3219-.26747-.517-.34312-.2625-.09786-.5417-.14311-.8216-.13318zm-3.8375 2.34989c-.0041-.5618.0859-1.12031.2663-1.65237.1642-.49762.425-.9579.7675-1.3544.3371-.38276.7509-.69039 1.2145-.90294.4969-.22201 1.0359-.33368 1.5801-.32731.5436-.00695 1.0823.10234 1.5802.32054.4665.20327.8861.50067 1.2325.87359.3395.36786.6033.79892.7765 1.26862.1837.48849.277 1.00633.2754 1.52822v.70429c-.0018.11201-.047.21894-.1262.29815-.0793.07921-.1862.12448-.2982.12623h-5.2325c-.0053.22041.0452.43861.1467.63431.0998.1777.2369.3318.4018.4515.1738.1285.3697.2242.5779.2821.2205.0614.4483.0926.6772.0926.2752.0077.55-.0265.8149-.1016.1855-.0562.3603-.1431.5169-.2573.0877-.0677.1823-.126.2822-.1738.0952-.0356.1965-.0517.298-.0475h1.2528c.1147.0017.2244.0469.307.1265.0416.0369.0739.0832.0943.1349.0204.0518.0283.1076.0231.163-.0352.2049-.1188.3984-.2438.5644-.1833.2645-.4127.4939-.6772.6772-.3471.2414-.7273.4315-1.1287.5643-.4981.1625-1.0202.2388-1.544.2257-.5419.006-1.0794-.0976-1.5801-.3047-.4668-.1932-.8847-.4877-1.2235-.8623-.3422-.3917-.6031-.8475-.7675-1.3409-.1838-.553-.2738-1.13284-.2664-1.71555"/><path d="m45.4199 10.0406c-.015.2817.0779.5585.2596.7743.1715.1941.4921.2912.9639.2912h.9548c.1118.0012.2187.0459.298.1248.0793.0788.1246.1855.1264.2973v1.0339c-.0018.112-.047.2189-.1262.2981s-.1862.1245-.2982.1263h-1.1603c-.9827 0-1.7351-.2378-2.2573-.7134-.5222-.4755-.7855-1.2039-.7901-2.1851v-3.37017h-1.0428c-.0554.00071-.1103-.01017-.1613-.03194-.0509-.02177-.0967-.05395-.1345-.09447-.0408-.03749-.0732-.08325-.095-.13424-.0218-.05098-.0325-.10603-.0314-.16147v-1.03612c-.0007-.05537.0102-.11029.032-.16121.0217-.05093.0539-.09674.0944-.1345.0381-.04008.084-.07197.1349-.0937.0508-.02174.1056-.03287.1609-.03271h1.0361v-2.5553c.0017-.11141.0467-.21777.1255-.29656.0788-.07878.1852-.12382.2966-.12556h1.1919c.1114.00174.2177.04678.2965.12556.0788.07879.1238.18515.1256.29656v2.5553h2.0316c.1082.00627.2101.05329.285.13161.075.07831.1175.18211.1191.29051v1.03612c-.0018.11141-.0468.21777-.1256.29656-.0788.07878-.1852.12382-.2966.12556h-2.0316z"/><path d="m55.7156 8.89616-1.7246-4.46727-1.7224 4.46727zm-.8623-6.88036c.0686-.005.1375.00425.2024.02717s.1243.05902.1746.10601c.1009.11697.1776.25276.2257.39955l3.8375 9.90517c.0103.0352.0156.0717.0158.1084-.0018.112-.047.2189-.1263.2981-.0792.0792-.1861.1245-.2981.1263h-1.1287c-.0785.0081-.1579.0006-.2335-.0223s-.1458-.0606-.2067-.1109c-.0737-.0744-.132-.1626-.1715-.2596l-.6772-1.7382h-4.9504l-.6772 1.7382c-.0395.097-.0978.1852-.1715.2596-.0609.0503-.1311.088-.2067.1109s-.155.0304-.2335.0223h-1.1287c-.1116-.0024-.218-.0479-.2967-.127-.0787-.0792-.1237-.1858-.1254-.2974-.0009-.0368.0044-.0734.0158-.1084l3.8375-9.90517c.0481-.14679.1248-.28258.2257-.39955.0503-.04699.1097-.08309.1746-.10601.0648-.02292.1338-.03217.2024-.02717z"/><path d="m66.0113 9.34989c.0316-.29109.0316-.58475 0-.87584-.061-.6772-.2709-1.1693-.6253-1.46501-.3646-.30259-.8265-.46296-1.3002-.45147-.4722-.01488-.9331.146-1.2935.45147-.1812.16626-.3278.36674-.4312.58989-.1035.22315-.1617.46457-.1715.71033-.024.1977-.0346.39681-.0316.59594-.0031.19913.0075.39825.0316.59594.0271.49.2432.95036.6027 1.28446.3557.3155.8183.4834 1.2935.4695.4737.0115.9356-.1489 1.3002-.4515.3544-.2957.5643-.7855.6253-1.46499zm-1.4515 3.79231c-.2923.0032-.584-.0279-.869-.0925-.2329-.0521-.4598-.1277-.6772-.2258-.173-.087-.3358-.193-.4854-.316-.1171-.0926-.2265-.1945-.3273-.3047v3.3363c-.0017.112-.047.219-.1262.2982s-.1862.1244-.2982.1262h-1.1896c-.112-.0018-.2189-.047-.2981-.1262s-.1245-.1862-.1263-.2982v-10.2799c.0024-.11161.0479-.21797.127-.2967.0792-.07873.1858-.12369.2974-.12542h1.1896c.1117.00173.2183.04669.2974.12542.0792.07873.1247.18509.127.2967v.36117c.1008-.11018.2102-.21209.3273-.30474.1529-.12041.3187-.22338.4944-.30699.2175-.09806.4444-.1737.6772-.22574.2851-.06466.5768-.09572.8691-.09255.4895-.00708.9742.09712 1.4176.30474.4121.19521.78.4725 1.0812.8149.3028.34751.5419.74561.7066 1.17607.1719.44295.2696.91125.2889 1.38601.0113.15575.0158.3386.0158.54853s0 .39278-.0158.54853c-.0193.47476-.117.94307-.2889 1.38597-.1647.4305-.4038.8286-.7066 1.1761-.3012.3424-.6691.6197-1.0812.8149-.4469.2059-.9348.307-1.4267.2957z"/><path d="m74.8691 9.3499c.0315-.2911.0315-.58475 0-.87585-.0632-.6772-.2709-1.1693-.6276-1.46501-.3642-.30332-.8263-.46378-1.3002-.45147-.4722-.01488-.9331.146-1.2934.45147-.1813.16626-.3279.36674-.4313.58989s-.1617.46457-.1715.71034c-.0229.19779-.0334.39682-.0316.59593-.0019.19911.0087.39815.0316.59594.0272.49.2432.95036.6028 1.28446.3556.3155.8182.4834 1.2934.4695.4739.0123.936-.1482 1.3002-.4515.3567-.2957.5644-.7855.6276-1.46499zm-1.4583 3.781c-.2923.0031-.5839-.028-.869-.0925-.2328-.0524-.4596-.128-.6772-.2257-.175-.0836-.3401-.1866-.4921-.307-.1178-.0927-.228-.1946-.3296-.3048v3.3386c.0003.0557-.0107.1108-.0324.162-.0218.0513-.0538.0975-.094.136-.038.0402-.0839.0721-.1348.0939-.0508.0217-.1056.0328-.1609.0325h-1.1919c-.1118-.0018-.2185-.0471-.2973-.1264-.0789-.0793-.1237-.1862-.1248-.298v-10.2799c.0017-.11141.0467-.21776.1255-.29655s.1852-.12382.2966-.12557h1.1919c.1112.00231.2172.04752.2959.12619s.1239.1847.1262.29593v.36118c.1016-.11016.2118-.21206.3296-.30474.152-.12043.3171-.22341.4921-.307.2176-.0977.4444-.17333.6772-.22573.2851-.06455.5767-.09561.869-.09255.4903-.00711.9758.09708 1.4199.30474.4116.19606.7794.47324 1.0813.81489.302.3476.5404.74572.7043 1.17608.1719.44294.2695.91124.2889 1.386.0113.15576.0158.3386.0158.54853 0 .20994 0 .39278-.0158.54854-.0194.47475-.117.94306-.2889 1.38596-.1639.4304-.4023.8285-.7043 1.1761-.3019.3417-.6697.6188-1.0813.8149-.4441.2077-.9296.3119-1.4199.3048"/></g></g></svg>